<svg version="1.1" viewBox="0.0 0.0 960.0 720.0" fill="none" stroke="none" stroke-linecap="square" stroke-miterlimit="10" xmlns:xlink="http://www.w3.org/1999/xlink" xmlns="http://www.w3.org/2000/svg"><clipPath id="p.0"><path d="m0 0l960.0 0l0 720.0l-960.0 0l0 -720.0z" clip-rule="nonzero"/></clipPath><g clip-path="url(#p.0)"><path fill="#000000" fill-opacity="0.0" d="m0 0l960.0 0l0 720.0l-960.0 0z" fill-rule="evenodd"/><path fill="#000000" d="m705.17 42.434505l59.056946 53.752766l-434.20712 393.93683l-59.056946 -53.752747z" fill-rule="evenodd"/><path stroke="#000000" stroke-width="1.0" stroke-linejoin="round" stroke-linecap="butt" d="m705.17 42.434505l59.056946 53.752766l-434.20712 393.93683l-59.056946 -53.752747z" fill-rule="evenodd"/><path fill="#000000" d="m270.84787 436.32724l-15.194626 67.60025l74.47615 -13.71106z" fill-rule="evenodd"/><path stroke="#000000" stroke-width="1.0" stroke-linejoin="round" stroke-linecap="butt" d="m270.84787 436.32724l-15.194626 67.60025l74.47615 -13.71106z" fill-rule="evenodd"/><path fill="#000000" d="m757.19684 5.010299l48.70746 44.33346c1.461731 1.3304901 2.2827148 3.1347275 2.2822266 5.0158043c-4.8828125E-4 1.8810768 -0.82232666 3.6849022 -2.284729 5.014656l-27.569824 25.068611c-2.4414062E-4 2.4414062E-4 -6.713867E-4 2.4414062E-4 -9.765625E-4 -7.6293945E-6l-59.729614 -54.36669l0 0c-3.0517578E-4 -2.5177002E-4 -3.0517578E-4 -6.5612793E-4 0 -9.059906E-4l27.569763 -25.067703l0 0c3.0453491 -2.7690682 7.9816895 -2.767826 11.025696 0.0027747154z" fill-rule="evenodd"/><path stroke="#000000" stroke-width="1.0" stroke-linejoin="round" stroke-linecap="butt" d="m757.19684 5.010299l48.70746 44.33346c1.461731 1.3304901 2.2827148 3.1347275 2.2822266 5.0158043c-4.8828125E-4 1.8810768 -0.82232666 3.6849022 -2.284729 5.014656l-27.569824 25.068611c-2.4414062E-4 2.4414062E-4 -6.713867E-4 2.4414062E-4 -9.765625E-4 -7.6293945E-6l-59.729614 -54.36669l0 0c-3.0517578E-4 -2.5177002E-4 -3.0517578E-4 -6.5612793E-4 0 -9.059906E-4l27.569763 -25.067703l0 0c3.0453491 -2.7690682 7.9816895 -2.767826 11.025696 0.0027747154z" fill-rule="evenodd"/><path fill="#000000" d="m0.010588754 72.71963l442.13907 0l0 75.08279l-442.13907 0z" fill-rule="evenodd"/><path stroke="#000000" stroke-width="1.0" stroke-linejoin="round" stroke-linecap="butt" d="m0.010588754 72.71963l442.13907 0l0 75.08279l-442.13907 0z" fill-rule="evenodd"/><path fill="#000000" d="m0.010588754 644.9001l648.4478 0l0 75.082825l-648.4478 0z" fill-rule="evenodd"/><path stroke="#000000" stroke-width="1.0" stroke-linejoin="round" stroke-linecap="butt" d="m0.010588754 644.9001l648.4478 0l0 75.082825l-648.4478 0z" fill-rule="evenodd"/><path fill="#000000" d="m0.010588754 719.9829l0 -601.8703l80.893295 0l0 601.8703z" fill-rule="evenodd"/><path stroke="#000000" stroke-width="1.0" stroke-linejoin="round" stroke-linecap="butt" d="m0.010588754 719.9829l0 -601.8703l80.893295 0l0 601.8703z" fill-rule="evenodd"/><path fill="#000000" d="m648.4584 719.9829l0 -380.37286l80.89331 0l0 380.37286z" fill-rule="evenodd"/><path stroke="#000000" stroke-width="1.0" stroke-linejoin="round" stroke-linecap="butt" d="m648.4584 719.9829l0 -380.37286l80.89331 0l0 380.37286z" fill-rule="evenodd"/><path fill="#000000" d="m442.14966 72.71963l0 75.08279l80.89331 -75.08279z" fill-rule="evenodd"/><path stroke="#000000" stroke-width="1.0" stroke-linejoin="round" stroke-linecap="butt" d="m442.14966 72.71963l0 75.08279l80.89331 -75.08279z" fill-rule="evenodd"/><path fill="#000000" d="m729.3517 339.61005l-80.89331 0l80.89331 -75.082794z" fill-rule="evenodd"/><path stroke="#000000" stroke-width="1.0" stroke-linejoin="round" stroke-linecap="butt" d="m729.3517 339.61005l-80.89331 0l80.89331 -75.082794z" fill-rule="evenodd"/></g></svg>